<svg width="26" height="31" viewBox="0 0 26 31" fill="none" xmlns="http://www.w3.org/2000/svg">
<g id="&#240;&#159;&#166;&#134; icon &#34;book&#34;">
<path id="Vector" d="M3.71429 0.642578C3.45429 0.642578 3.23143 0.679721 3.00857 0.754007C1.56 1.05115 0.408571 2.20258 0.111429 3.65115C0 3.87401 0 4.09686 0 4.35686V24.7854C0 27.8683 2.48857 30.3569 5.57143 30.3569H26V26.6426H5.57143C4.53143 26.6426 3.71429 25.8254 3.71429 24.7854C3.71429 23.7454 4.53143 22.9283 5.57143 22.9283H26V2.49972C26 1.45972 25.1829 0.642578 24.1429 0.642578H22.2857V11.7854L18.5714 8.07115L14.8571 11.7854V0.642578H3.71429Z" fill="black"/>
</g>
</svg>
